<svg width="181" height="30" viewBox="0 0 181 30" fill="none" xmlns="http://www.w3.org/2000/svg">
<path d="M0 1.09434H17.3778V6.37736H5.47778V12.6792H15.7911V17.9623H5.47778V28.8679H0V1.09434Z" fill="#111111"/>
<path d="M17.9297 15.0189C17.9297 13.1069 18.2949 11.2956 19.0252 9.58491C19.7556 7.87421 20.763 6.36478 22.0475 5.0566C23.3571 3.72327 24.8682 2.67925 26.5808 1.92453C28.2934 1.16981 30.1319 0.792454 32.0963 0.792454C34.0356 0.792454 35.8615 1.16981 37.5741 1.92453C39.2867 2.67925 40.7978 3.72327 42.1075 5.0566C43.4423 6.36478 44.4749 7.87421 45.2052 9.58491C45.9608 11.2956 46.3386 13.1069 46.3386 15.0189C46.3386 16.9811 45.9608 18.8176 45.2052 20.5283C44.4749 22.239 43.4423 23.7484 42.1075 25.0566C40.7978 26.3396 39.2867 27.3459 37.5741 28.0755C35.8615 28.805 34.0356 29.1698 32.0963 29.1698C30.1319 29.1698 28.2934 28.805 26.5808 28.0755C24.8682 27.3459 23.3571 26.3396 22.0475 25.0566C20.763 23.7484 19.7556 22.239 19.0252 20.5283C18.2949 18.8176 17.9297 16.9811 17.9297 15.0189ZM23.5963 15.0189C23.5963 16.2516 23.8104 17.4088 24.2386 18.4906C24.6919 19.5472 25.3089 20.4906 26.0897 21.3208C26.8956 22.1258 27.8149 22.7547 28.8475 23.2075C29.9052 23.6604 31.0512 23.8868 32.2852 23.8868C33.4689 23.8868 34.5645 23.6604 35.5719 23.2075C36.6045 22.7547 37.4986 22.1258 38.2541 21.3208C39.0097 20.4906 39.6015 19.5472 40.0297 18.4906C40.4578 17.4088 40.6719 16.2516 40.6719 15.0189C40.6719 13.761 40.4452 12.5912 39.9919 11.5094C39.5637 10.4277 38.9593 9.48428 38.1786 8.67924C37.423 7.84906 36.5289 7.20755 35.4963 6.75472C34.4637 6.30189 33.343 6.07547 32.1341 6.07547C30.9252 6.07547 29.8045 6.30189 28.7719 6.75472C27.7393 7.20755 26.8326 7.84906 26.0519 8.67924C25.2712 9.48428 24.6667 10.4277 24.2386 11.5094C23.8104 12.5912 23.5963 13.761 23.5963 15.0189Z" fill="#111111"/>
<path d="M73.6731 30L52.5931 10.9811L54.2176 11.8868L54.3309 28.8679H48.7776V0H49.0043L69.6309 18.9434L68.422 18.4151L68.3087 1.09434H73.8242V30H73.6731Z" fill="#111111"/>
<path d="M76.0735 1.09434H94.8113V6.37736H88.049V28.8679H82.5713V6.37736H76.0735V1.09434Z" fill="#111111"/>
<path d="M111.922 7.81132C110.864 7.2327 109.781 6.75472 108.673 6.37736C107.59 6 106.57 5.81132 105.613 5.81132C104.43 5.81132 103.498 6.05032 102.818 6.5283C102.138 7.00629 101.798 7.72327 101.798 8.67924C101.798 9.33333 102.05 9.92453 102.553 10.4528C103.082 10.956 103.75 11.4088 104.556 11.8113C105.387 12.2138 106.243 12.5786 107.124 12.9057C107.93 13.2075 108.724 13.5723 109.504 14C110.31 14.4025 111.028 14.9182 111.658 15.5472C112.287 16.1509 112.791 16.9182 113.169 17.8491C113.547 18.7547 113.736 19.8742 113.736 21.2075C113.736 22.6164 113.37 23.9245 112.64 25.1321C111.91 26.3396 110.839 27.3208 109.429 28.0755C108.019 28.805 106.281 29.1698 104.216 29.1698C103.158 29.1698 102.075 29.0692 100.967 28.8679C99.8837 28.6415 98.8133 28.3145 97.7556 27.8868C96.6978 27.434 95.6778 26.8679 94.6956 26.1887L97.1133 21.9245C97.7682 22.4025 98.4733 22.8302 99.2289 23.2075C100.01 23.5597 100.79 23.8365 101.571 24.0377C102.352 24.239 103.07 24.3396 103.724 24.3396C104.379 24.3396 105.034 24.2516 105.689 24.0755C106.369 23.8742 106.923 23.5472 107.351 23.0943C107.804 22.6415 108.031 22.0126 108.031 21.2075C108.031 20.6541 107.842 20.1509 107.464 19.6981C107.112 19.2453 106.621 18.8302 105.991 18.4528C105.387 18.0755 104.719 17.7484 103.989 17.4717C103.133 17.1447 102.251 16.7673 101.344 16.3396C100.438 15.912 99.5815 15.3962 98.7756 14.7925C97.9948 14.1635 97.3526 13.3962 96.8489 12.4906C96.3704 11.5597 96.1311 10.4277 96.1311 9.09434C96.1311 7.48428 96.4837 6.08805 97.1889 4.90566C97.9193 3.72327 98.9393 2.79245 100.249 2.11321C101.559 1.4088 103.07 1.01887 104.782 0.943397C107.024 0.943397 108.837 1.20755 110.222 1.73585C111.633 2.26415 112.892 2.89308 114 3.62264L111.922 7.81132Z" fill="#111111"/>
<path d="M136.512 25.2236C138.211 23.8955 139.739 22.4844 141.097 20.9902C142.464 19.4961 143.621 17.9873 144.568 16.4639C145.525 14.9307 146.258 13.4072 146.766 11.8936C147.273 10.3701 147.527 8.91992 147.527 7.54297C147.527 6.74219 147.439 5.99512 147.264 5.30176C147.098 4.6084 146.854 4.0127 146.531 3.51465C146.209 3.00684 145.818 2.61133 145.359 2.32812C144.91 2.03516 144.402 1.88867 143.836 1.88867H143.558C143.392 1.88867 143.25 1.83984 143.133 1.74219C143.025 1.64453 142.972 1.5127 142.972 1.34668C142.972 1.1123 143.055 0.960938 143.221 0.892578C143.396 0.814453 143.592 0.775391 143.807 0.775391C144.52 0.775391 145.174 0.941406 145.77 1.27344C146.365 1.60547 146.873 2.06934 147.293 2.66504C147.713 3.26074 148.04 3.96387 148.274 4.77441C148.509 5.58496 148.626 6.46387 148.626 7.41113C148.626 8.9541 148.357 10.541 147.82 12.1719C147.293 13.793 146.507 15.4287 145.462 17.0791C144.427 18.7197 143.138 20.3555 141.595 21.9863C140.062 23.6172 138.294 25.209 136.292 26.7617C136.243 26.8008 136.18 26.8447 136.102 26.8936C136.023 26.9424 135.931 26.9668 135.823 26.9668C135.638 26.9668 135.501 26.9033 135.413 26.7764C135.325 26.6592 135.281 26.5176 135.281 26.3516C135.281 26.2832 135.286 26.1416 135.296 25.9268C135.315 25.7119 135.335 25.4482 135.354 25.1357C135.374 24.8232 135.398 24.4814 135.428 24.1104C135.457 23.7295 135.481 23.3486 135.501 22.9678C135.521 22.5771 135.535 22.2012 135.545 21.8398C135.564 21.4785 135.574 21.1562 135.574 20.873C135.584 18.7344 135.423 16.7617 135.091 14.9551C134.759 13.1387 134.231 11.5664 133.509 10.2383C132.786 8.91016 131.854 7.875 130.711 7.13281C129.578 6.38086 128.206 6.00488 126.595 6.00488C125.394 6.00488 124.334 6.1709 123.416 6.50293C122.508 6.8252 121.746 7.25488 121.131 7.79199C120.516 8.3291 120.052 8.93945 119.739 9.62305C119.427 10.2969 119.271 10.9854 119.271 11.6885C119.271 12.3135 119.373 12.875 119.578 13.373C119.793 13.8613 120.081 14.2812 120.442 14.6328C120.813 14.9746 121.248 15.2383 121.746 15.4238C122.244 15.5996 122.781 15.6875 123.357 15.6875C123.846 15.6875 124.29 15.6338 124.69 15.5264C125.091 15.4189 125.433 15.3018 125.716 15.1748C125.999 15.0381 126.219 14.916 126.375 14.8086C126.541 14.6914 126.634 14.623 126.653 14.6035C126.702 14.5547 126.756 14.5254 126.814 14.5156C126.883 14.4961 126.946 14.4863 127.005 14.4863C127.151 14.4863 127.278 14.5352 127.386 14.6328C127.493 14.7207 127.547 14.8428 127.547 14.999C127.547 15.1846 127.483 15.3262 127.356 15.4238C127.337 15.4434 127.229 15.5264 127.034 15.6729C126.839 15.8096 126.565 15.9609 126.214 16.127C125.872 16.2832 125.457 16.4297 124.969 16.5664C124.48 16.7031 123.938 16.7715 123.343 16.7715C122.61 16.7715 121.927 16.6494 121.292 16.4053C120.657 16.1611 120.11 15.8145 119.651 15.3652C119.192 14.916 118.831 14.3838 118.567 13.7686C118.304 13.1436 118.172 12.4551 118.172 11.7031C118.172 10.8633 118.353 10.0381 118.714 9.22754C119.075 8.41699 119.607 7.69434 120.311 7.05957C121.023 6.4248 121.897 5.91699 122.933 5.53613C123.978 5.14551 125.184 4.9502 126.551 4.9502C128.318 4.9502 129.837 5.33594 131.106 6.10742C132.386 6.86914 133.436 7.94824 134.256 9.34473C135.086 10.7412 135.696 12.4258 136.087 14.3984C136.487 16.3613 136.688 18.5439 136.688 20.9463C136.688 21.6201 136.673 22.3184 136.644 23.041C136.614 23.7539 136.57 24.4814 136.512 25.2236ZM149.051 24.3887C149.256 24.6719 149.52 24.9014 149.842 25.0771C150.164 25.2432 150.56 25.3262 151.028 25.3262C151.507 25.3262 151.941 25.2139 152.332 24.9893C152.723 24.7549 153.079 24.4521 153.401 24.0811C153.724 23.71 154.012 23.2949 154.266 22.8359C154.52 22.377 154.749 21.918 154.954 21.459C155.003 21.3516 155.071 21.2734 155.159 21.2246C155.247 21.166 155.345 21.1367 155.452 21.1367C155.618 21.1367 155.75 21.1953 155.848 21.3125C155.955 21.4297 156.009 21.5566 156.009 21.6934C156.009 21.7422 156.004 21.7861 155.994 21.8252C155.984 21.8545 155.97 21.8887 155.95 21.9277C155.276 23.4121 154.539 24.5303 153.738 25.2822C152.947 26.0342 152.049 26.4199 151.043 26.4395C150.398 26.4395 149.842 26.3125 149.373 26.0586C148.904 25.8145 148.519 25.4971 148.216 25.1064C147.913 24.7061 147.688 24.2568 147.542 23.7588C147.396 23.2607 147.322 22.7627 147.322 22.2646C147.322 21.7666 147.381 21.3076 147.498 20.8877C147.625 20.4678 147.801 20.1016 148.025 19.7891C148.26 19.4766 148.533 19.2324 148.846 19.0566C149.168 18.8809 149.52 18.793 149.9 18.793C150.125 18.793 150.345 18.8418 150.56 18.9395C150.784 19.0273 150.984 19.1592 151.16 19.335C151.336 19.501 151.478 19.7061 151.585 19.9502C151.692 20.1943 151.746 20.4727 151.746 20.7852C151.746 21.1855 151.678 21.5615 151.541 21.9131C151.404 22.2646 151.214 22.5918 150.97 22.8945C150.735 23.1973 150.452 23.4756 150.12 23.7295C149.788 23.9834 149.432 24.2031 149.051 24.3887ZM148.611 23.4365C148.914 23.3096 149.188 23.1484 149.432 22.9531C149.686 22.7578 149.9 22.543 150.076 22.3086C150.252 22.0742 150.389 21.8301 150.486 21.5762C150.584 21.3125 150.633 21.0488 150.633 20.7852C150.633 20.4922 150.56 20.2725 150.413 20.126C150.267 19.9697 150.096 19.8916 149.9 19.8916C149.637 19.8916 149.412 19.9648 149.227 20.1113C149.041 20.2578 148.89 20.4482 148.772 20.6826C148.655 20.917 148.567 21.1807 148.509 21.4736C148.46 21.7568 148.436 22.04 148.436 22.3232C148.436 22.499 148.45 22.6846 148.479 22.8799C148.519 23.0752 148.562 23.2607 148.611 23.4365ZM156.507 19.9795C156.468 20.2432 156.419 20.4922 156.36 20.7266C156.302 20.9512 156.243 21.1514 156.185 21.3271C156.136 21.4932 156.092 21.6299 156.053 21.7373C156.014 21.8447 155.989 21.9033 155.979 21.9131C155.882 22.1377 155.711 22.25 155.467 22.25C155.33 22.25 155.203 22.2012 155.086 22.1035C154.969 21.9961 154.91 21.8643 154.91 21.708C154.91 21.6494 154.92 21.6055 154.939 21.5762C154.959 21.5469 154.988 21.4883 155.027 21.4004C155.066 21.3125 155.115 21.166 155.174 20.9609C155.232 20.7559 155.306 20.4385 155.394 20.0088C155.228 20.0088 155.057 20.0039 154.881 19.9941C154.705 19.9844 154.544 19.9502 154.397 19.8916C154.241 19.833 154.114 19.7402 154.017 19.6133C153.919 19.4863 153.87 19.3105 153.87 19.0859C153.87 18.9199 153.919 18.6953 154.017 18.4121C154.104 18.1289 154.227 17.8506 154.383 17.5771C154.539 17.3037 154.715 17.0693 154.91 16.874C155.105 16.6689 155.301 16.5664 155.496 16.5664C155.721 16.5664 155.901 16.6494 156.038 16.8154C156.185 16.9814 156.297 17.1865 156.375 17.4307C156.453 17.665 156.507 17.9141 156.536 18.1777C156.575 18.4414 156.595 18.6709 156.595 18.8662C156.761 18.8662 156.922 18.8662 157.078 18.8662C157.244 18.8564 157.4 18.8516 157.547 18.8516C158.104 18.8516 158.528 18.9736 158.821 19.2178C159.114 19.4619 159.261 19.8623 159.261 20.4189C159.261 20.6436 159.246 20.8779 159.217 21.1221C159.188 21.3662 159.153 21.6201 159.114 21.8838C159.075 22.1377 159.041 22.3916 159.012 22.6455C158.982 22.8994 158.968 23.1484 158.968 23.3926C158.968 23.7441 159.017 24.0371 159.114 24.2715C159.212 24.4961 159.334 24.6768 159.48 24.8135C159.627 24.9502 159.783 25.0479 159.949 25.1064C160.115 25.1553 160.267 25.1797 160.403 25.1797C160.823 25.1797 161.219 25.043 161.59 24.7695C161.961 24.4961 162.303 24.1689 162.615 23.7881C162.928 23.3975 163.206 22.9873 163.45 22.5576C163.704 22.1279 163.914 21.752 164.08 21.4297C164.129 21.3418 164.197 21.2734 164.285 21.2246C164.373 21.1758 164.466 21.1514 164.563 21.1514C164.739 21.1514 164.876 21.21 164.974 21.3271C165.071 21.4346 165.12 21.5566 165.12 21.6934C165.12 21.791 165.101 21.8789 165.062 21.957C164.837 22.3574 164.573 22.8115 164.271 23.3193C163.978 23.8174 163.641 24.2861 163.26 24.7256C162.879 25.165 162.449 25.5361 161.971 25.8389C161.502 26.1416 160.984 26.293 160.418 26.293C160.066 26.293 159.734 26.2246 159.422 26.0879C159.109 25.9609 158.836 25.7754 158.602 25.5312C158.377 25.2773 158.196 24.9697 158.06 24.6084C157.923 24.2373 157.854 23.8223 157.854 23.3633C157.854 22.875 157.903 22.3916 158.001 21.9131C158.099 21.4248 158.147 20.9609 158.147 20.5215C158.147 20.3359 158.104 20.1992 158.016 20.1113C157.938 20.0137 157.757 19.9648 157.474 19.9648C157.337 19.9648 157.186 19.9648 157.02 19.9648C156.863 19.9648 156.692 19.9697 156.507 19.9795ZM155.525 18.8955C155.525 18.8271 155.521 18.7393 155.511 18.6318C155.511 18.5146 155.501 18.4023 155.481 18.2949C155.472 18.1875 155.452 18.0947 155.423 18.0166C155.403 17.9385 155.379 17.8994 155.35 17.8994C155.32 17.8994 155.281 17.9385 155.232 18.0166C155.193 18.085 155.149 18.1729 155.101 18.2803C155.052 18.3779 155.008 18.4854 154.969 18.6025C154.93 18.7197 154.9 18.8174 154.881 18.8955H155.525ZM165.706 20.5801C165.647 20.7363 165.574 20.9121 165.486 21.1074C165.408 21.3027 165.315 21.5078 165.208 21.7227C165.12 21.8887 165.027 22.0205 164.93 22.1182C164.842 22.2061 164.725 22.25 164.578 22.25C164.412 22.25 164.28 22.2012 164.183 22.1035C164.085 21.9961 164.036 21.874 164.036 21.7373C164.036 21.6885 164.041 21.6494 164.051 21.6201C164.061 21.5811 164.085 21.5225 164.124 21.4443C164.378 20.9561 164.563 20.5312 164.681 20.1699C164.808 19.7988 164.91 19.4131 164.988 19.0127C164.92 18.7881 164.871 18.5977 164.842 18.4414C164.812 18.2852 164.798 18.124 164.798 17.958C164.798 17.6357 164.866 17.377 165.003 17.1816C165.14 16.9766 165.33 16.874 165.574 16.874C165.799 16.874 165.975 16.9717 166.102 17.167C166.238 17.3623 166.307 17.6016 166.307 17.8848C166.307 18.041 166.292 18.1973 166.263 18.3535C166.233 18.5098 166.194 18.7051 166.146 18.9395C166.37 19.4961 166.595 19.9893 166.819 20.4189C167.044 20.8486 167.244 21.2441 167.42 21.6055C167.596 21.957 167.737 22.2891 167.845 22.6016C167.962 22.9141 168.021 23.2266 168.021 23.5391C168.021 23.9492 167.938 24.3398 167.771 24.7109C167.605 25.082 167.332 25.3945 166.951 25.6484C167 25.6582 167.049 25.6631 167.098 25.6631C167.146 25.6631 167.195 25.6631 167.244 25.6631C167.801 25.6631 168.313 25.5361 168.782 25.2822C169.251 25.0283 169.671 24.7012 170.042 24.3008C170.423 23.8906 170.76 23.4414 171.053 22.9531C171.346 22.4551 171.6 21.9619 171.814 21.4736C171.912 21.249 172.049 21.1367 172.225 21.1367C172.391 21.1367 172.518 21.1953 172.605 21.3125C172.703 21.4297 172.752 21.5566 172.752 21.6934C172.752 21.7715 172.737 21.8447 172.708 21.9131C172.601 22.1768 172.459 22.4795 172.283 22.8213C172.117 23.1533 171.912 23.5 171.668 23.8613C171.434 24.2129 171.16 24.5596 170.848 24.9014C170.535 25.2432 170.184 25.5508 169.793 25.8242C169.412 26.0879 168.992 26.2979 168.533 26.4541C168.074 26.6201 167.571 26.7031 167.024 26.7031C166.37 26.7031 165.76 26.5859 165.193 26.3516C164.637 26.127 164.183 25.751 163.831 25.2236C163.772 25.1357 163.743 25.043 163.743 24.9453C163.743 24.7988 163.797 24.6719 163.904 24.5645C164.021 24.4473 164.153 24.3887 164.3 24.3887C164.456 24.3887 164.588 24.4424 164.695 24.5498C164.705 24.5693 164.739 24.6035 164.798 24.6523C164.856 24.6914 164.925 24.7402 165.003 24.7988C165.091 24.8477 165.188 24.8916 165.296 24.9307C165.413 24.9697 165.53 24.9893 165.647 24.9893C165.882 24.9893 166.077 24.9404 166.233 24.8428C166.399 24.7451 166.531 24.6279 166.629 24.4912C166.727 24.3447 166.795 24.1934 166.834 24.0371C166.883 23.8711 166.907 23.7295 166.907 23.6123C166.907 23.3682 166.868 23.124 166.79 22.8799C166.712 22.6357 166.609 22.3916 166.482 22.1475C166.365 21.9033 166.233 21.6543 166.087 21.4004C165.95 21.1367 165.823 20.8633 165.706 20.5801ZM173.455 24.3887C173.66 24.6719 173.924 24.9014 174.246 25.0771C174.568 25.2432 174.964 25.3262 175.433 25.3262C175.911 25.3262 176.346 25.2139 176.736 24.9893C177.127 24.7549 177.483 24.4521 177.806 24.0811C178.128 23.71 178.416 23.2949 178.67 22.8359C178.924 22.377 179.153 21.918 179.358 21.459C179.407 21.3516 179.476 21.2734 179.563 21.2246C179.651 21.166 179.749 21.1367 179.856 21.1367C180.022 21.1367 180.154 21.1953 180.252 21.3125C180.359 21.4297 180.413 21.5566 180.413 21.6934C180.413 21.7422 180.408 21.7861 180.398 21.8252C180.389 21.8545 180.374 21.8887 180.354 21.9277C179.681 23.4121 178.943 24.5303 178.143 25.2822C177.352 26.0342 176.453 26.4199 175.447 26.4395C174.803 26.4395 174.246 26.3125 173.777 26.0586C173.309 25.8145 172.923 25.4971 172.62 25.1064C172.317 24.7061 172.093 24.2568 171.946 23.7588C171.8 23.2607 171.727 22.7627 171.727 22.2646C171.727 21.7666 171.785 21.3076 171.902 20.8877C172.029 20.4678 172.205 20.1016 172.43 19.7891C172.664 19.4766 172.938 19.2324 173.25 19.0566C173.572 18.8809 173.924 18.793 174.305 18.793C174.529 18.793 174.749 18.8418 174.964 18.9395C175.188 19.0273 175.389 19.1592 175.564 19.335C175.74 19.501 175.882 19.7061 175.989 19.9502C176.097 20.1943 176.15 20.4727 176.15 20.7852C176.15 21.1855 176.082 21.5615 175.945 21.9131C175.809 22.2646 175.618 22.5918 175.374 22.8945C175.14 23.1973 174.856 23.4756 174.524 23.7295C174.192 23.9834 173.836 24.2031 173.455 24.3887ZM173.016 23.4365C173.318 23.3096 173.592 23.1484 173.836 22.9531C174.09 22.7578 174.305 22.543 174.48 22.3086C174.656 22.0742 174.793 21.8301 174.891 21.5762C174.988 21.3125 175.037 21.0488 175.037 20.7852C175.037 20.4922 174.964 20.2725 174.817 20.126C174.671 19.9697 174.5 19.8916 174.305 19.8916C174.041 19.8916 173.816 19.9648 173.631 20.1113C173.445 20.2578 173.294 20.4482 173.177 20.6826C173.06 20.917 172.972 21.1807 172.913 21.4736C172.864 21.7568 172.84 22.04 172.84 22.3232C172.84 22.499 172.854 22.6846 172.884 22.8799C172.923 23.0752 172.967 23.2607 173.016 23.4365Z" fill="url(#paint0_linear_13_71)"/>
<defs>
<linearGradient id="paint0_linear_13_71" x1="187" y1="29" x2="117" y2="1" gradientUnits="userSpaceOnUse">
<stop stop-color="#8ECAE6"/>
<stop offset="0.168269" stop-color="#219EBC"/>
<stop offset="0.485577" stop-color="#023047"/>
<stop offset="0.697115" stop-color="#FFB703"/>
<stop offset="1" stop-color="#FB8500"/>
</linearGradient>
</defs>
</svg>
